<?xml version="1.0" encoding="UTF-8" standalone="no"?>
<svg width="800" height="600" viewBox="0 0 800 600" fill="none" xmlns="http://www.w3.org/2000/svg">
  <!-- Background gradient -->
  <rect width="800" height="600" fill="url(#paint0_linear)" />
  
  <!-- Left circle - Influencer -->
  <circle cx="200" cy="300" r="120" fill="#1db954" fill-opacity="0.2" stroke="#1db954" stroke-width="3"/>
  
  <!-- Right circle - Company -->
  <circle cx="600" cy="300" r="120" fill="#1db954" fill-opacity="0.2" stroke="#1db954" stroke-width="3"/>
  
  <!-- Center diamond - YURALINK -->
  <rect x="350" y="250" width="100" height="100" transform="rotate(45 400 300)" fill="#1db954" fill-opacity="0.6" stroke="#1db954" stroke-width="3"/>
  
  <!-- Connection lines -->
  <line x1="280" y1="300" x2="350" y2="300" stroke="#1db954" stroke-width="3" stroke-dasharray="10 5"/>
  <line x1="450" y1="300" x2="520" y2="300" stroke="#1db954" stroke-width="3" stroke-dasharray="10 5"/>
  
  <!-- Influencer icon -->
  <circle cx="200" cy="250" r="30" fill="#1db954"/>
  <circle cx="200" cy="200" r="20" fill="#1db954"/>
  <path d="M150 330 Q 200 290 250 330 L 250 370 Q 200 390 150 370 Z" fill="#1db954"/>
  
  <!-- Company icon -->
  <rect x="550" y="250" width="100" height="100" fill="#1db954"/>
  <rect x="570" y="270" width="60" height="60" fill="#121212"/>
  <rect x="590" y="200" width="20" height="50" fill="#1db954"/>
  
  <!-- Center logo text -->
  <text x="400" y="305" font-family="Arial, sans-serif" font-size="16" font-weight="bold" fill="white" text-anchor="middle">YURALINK</text>
  
  <!-- Labels -->
  <text x="200" y="400" font-family="Arial, sans-serif" font-size="24" font-weight="bold" fill="white" text-anchor="middle">Influencers</text>
  <text x="600" y="400" font-family="Arial, sans-serif" font-size="24" font-weight="bold" fill="white" text-anchor="middle">Companies</text>
  
  <!-- Definitions -->
  <defs>
    <linearGradient id="paint0_linear" x1="0" y1="0" x2="800" y2="600" gradientUnits="userSpaceOnUse">
      <stop offset="0%" stop-color="#121212"/>
      <stop offset="100%" stop-color="#1e1e1e"/>
    </linearGradient>
  </defs>
</svg>